REM DIRINDEX 1\2,1\3,1\4,1\5
REM DIRNAME cjc046,folder01,folder02,folder03,folder04
TITLE ""
FILE "099.mp3" MP3
  TRACK 01 AUDIO
    TITLE "0:"
    INDEX 01 00:00:00
  TRACK 02 AUDIO
    TITLE "2:cjc046_2144"
    INDEX 01 00:00:15
  TRACK 03 AUDIO
    TITLE "0:"
    INDEX 01 00:01:22
  TRACK 04 AUDIO
    TITLE "3:cjc046_2145"
    INDEX 01 00:01:50
  TRACK 05 AUDIO
    TITLE "0:"
    INDEX 01 00:02:67
  TRACK 06 AUDIO
    TITLE "4:cjc046_2146"
    INDEX 01 00:03:06
  TRACK 07 AUDIO
    TITLE "0:"
    INDEX 01 00:04:13
  TRACK 08 AUDIO
    TITLE "2:cjc046_2147"
    INDEX 01 00:05:24
  TRACK 09 AUDIO
    TITLE "0:"
    INDEX 01 00:06:26
  TRACK 10 AUDIO
    TITLE "3:cjc046_2148"
    INDEX 01 00:06:47
  TRACK 11 AUDIO
    TITLE "0:"
    INDEX 01 00:07:41
  TRACK 12 AUDIO
    TITLE "4:cjc046_2149"
    INDEX 01 00:07:54
  TRACK 13 AUDIO
    TITLE "0:"
    INDEX 01 00:08:58
  TRACK 14 AUDIO
    TITLE "2:cjc046_2150"
    INDEX 01 00:09:67
  TRACK 15 AUDIO
    TITLE "0:"
    INDEX 01 00:10:74
  TRACK 16 AUDIO
    TITLE "3:cjc046_2151"
    INDEX 01 00:11:21
  TRACK 17 AUDIO
    TITLE "0:"
    INDEX 01 00:12:56
  TRACK 18 AUDIO
    TITLE "4:cjc046_2152"
    INDEX 01 00:12:69
  TRACK 19 AUDIO
    TITLE "0:"
    INDEX 01 00:14:02
  TRACK 20 AUDIO
    TITLE "2:cjc046_2153"
    INDEX 01 00:15:11
  TRACK 21 AUDIO
    TITLE "0:"
    INDEX 01 00:16:20
  TRACK 22 AUDIO
    TITLE "3:cjc046_2154"
    INDEX 01 00:16:44
  TRACK 23 AUDIO
    TITLE "0:"
    INDEX 01 00:17:49
  TRACK 24 AUDIO
    TITLE "4:cjc046_2155"
    INDEX 01 00:17:61
  TRACK 25 AUDIO
    TITLE "0:"
    INDEX 01 00:18:70
  TRACK 26 AUDIO
    TITLE "2:cjc046_2156"
    INDEX 01 00:20:00
  TRACK 27 AUDIO
    TITLE "0:"
    INDEX 01 00:21:04
  TRACK 28 AUDIO
    TITLE "3:cjc046_2157"
    INDEX 01 00:21:33
  TRACK 29 AUDIO
    TITLE "0:"
    INDEX 01 00:22:40
  TRACK 30 AUDIO
    TITLE "4:cjc046_2158"
    INDEX 01 00:22:56
  TRACK 31 AUDIO
    TITLE "0:"
    INDEX 01 00:23:59
  TRACK 32 AUDIO
    TITLE "2:cjc046_2159"
    INDEX 01 00:24:71
  TRACK 33 AUDIO
    TITLE "0:"
    INDEX 01 00:26:01
  TRACK 34 AUDIO
    TITLE "3:cjc046_2160"
    INDEX 01 00:26:24
  TRACK 35 AUDIO
    TITLE "0:"
    INDEX 01 00:28:12
  TRACK 36 AUDIO
    TITLE "4:cjc046_2161"
    INDEX 01 00:28:31
  TRACK 37 AUDIO
    TITLE "0:"
    INDEX 01 00:29:34
  TRACK 38 AUDIO
    TITLE "2:cjc046_2162"
    INDEX 01 00:30:48
  TRACK 39 AUDIO
    TITLE "0:"
    INDEX 01 00:31:47
  TRACK 40 AUDIO
    TITLE "3:cjc046_2163"
    INDEX 01 00:31:73
  TRACK 41 AUDIO
    TITLE "0:"
    INDEX 01 00:33:21
  TRACK 42 AUDIO
    TITLE "4:cjc046_2164"
    INDEX 01 00:33:36
  TRACK 43 AUDIO
    TITLE "0:"
    INDEX 01 00:34:34
  TRACK 44 AUDIO
    TITLE "2:cjc046_2165"
    INDEX 01 00:35:41
  TRACK 45 AUDIO
    TITLE "0:"
    INDEX 01 00:36:38
  TRACK 46 AUDIO
    TITLE "3:cjc046_2166"
    INDEX 01 00:36:62
  TRACK 47 AUDIO
    TITLE "0:"
    INDEX 01 00:37:67
  TRACK 48 AUDIO
    TITLE "4:cjc046_2167"
    INDEX 01 00:38:06
  TRACK 49 AUDIO
    TITLE "0:"
    INDEX 01 00:39:02
  TRACK 50 AUDIO
    TITLE "2:cjc046_2168"
    INDEX 01 00:40:11
  TRACK 51 AUDIO
    TITLE "0:"
    INDEX 01 00:41:16
  TRACK 52 AUDIO
    TITLE "3:cjc046_2169"
    INDEX 01 00:41:40
  TRACK 53 AUDIO
    TITLE "0:"
    INDEX 01 00:42:43
  TRACK 54 AUDIO
    TITLE "4:cjc046_2170"
    INDEX 01 00:42:55
  TRACK 55 AUDIO
    TITLE "0:"
    INDEX 01 00:43:58
  TRACK 56 AUDIO
    TITLE "2:cjc046_2171"
    INDEX 01 00:44:69
  TRACK 57 AUDIO
    TITLE "0:"
    INDEX 01 00:45:73
  TRACK 58 AUDIO
    TITLE "3:cjc046_2172"
    INDEX 01 00:46:23
  TRACK 59 AUDIO
    TITLE "0:"
    INDEX 01 00:47:46
  TRACK 60 AUDIO
    TITLE "4:cjc046_2173"
    INDEX 01 00:47:60
  TRACK 61 AUDIO
    TITLE "0:"
    INDEX 01 00:48:65
  TRACK 62 AUDIO
    TITLE "2:cjc046_2174"
    INDEX 01 00:49:74
  TRACK 63 AUDIO
    TITLE "0:"
    INDEX 01 00:51:01
  TRACK 64 AUDIO
    TITLE "3:cjc046_2175"
    INDEX 01 00:51:24
  TRACK 65 AUDIO
    TITLE "0:"
    INDEX 01 00:52:28
  TRACK 66 AUDIO
    TITLE "4:cjc046_2176"
    INDEX 01 00:52:43
  TRACK 67 AUDIO
    TITLE "0:"
    INDEX 01 00:53:49
